<svg xmlns="http://www.w3.org/2000/svg" width="1200" height="630" viewBox="0 0 1200 630">
  <defs>
    <linearGradient id="bg" x1="0" x2="1" y1="0" y2="1">
      <stop offset="0" stop-color="#fbfdfb"/>
      <stop offset="0.56" stop-color="#eef8f4"/>
      <stop offset="1" stop-color="#dff0ea"/>
    </linearGradient>
    <filter id="shadow" x="-30%" y="-30%" width="160%" height="160%">
      <feDropShadow dx="0" dy="18" stdDeviation="22" flood-color="#0b1714" flood-opacity="0.16"/>
    </filter>
  </defs>
  <rect width="1200" height="630" fill="url(#bg)"/>
  <path d="M0 548C144 514 238 512 382 543c150 33 277 26 414-22 128-45 256-62 404-27v136H0Z" fill="#ffffff" opacity="0.72"/>
  <g transform="translate(78 78)" filter="url(#shadow)">
    <rect width="112" height="112" rx="26" fill="#10201d"/>
    <path d="M70.9 18.4h17.1L42.4 93.6H25.3L70.9 18.4Z" fill="#effff9"/>
    <path d="M84.4 18.4h7.4L46.2 93.6h-7.4L84.4 18.4Z" fill="#14b8a6"/>
    <path d="M65.6 76.1h22.8v14.4H65.6Z" fill="#f6c453"/>
  </g>
  <text x="224" y="128" fill="#10201d" font-family="Inter, ui-sans-serif, system-ui, -apple-system, BlinkMacSystemFont, Segoe UI, sans-serif" font-size="54" font-weight="850">GoalBench</text>
  <text x="226" y="172" fill="#115e59" font-family="Inter, ui-sans-serif, system-ui, -apple-system, BlinkMacSystemFont, Segoe UI, sans-serif" font-size="24" font-weight="760">Codex /goal on ProgramBench</text>
  <text x="78" y="310" fill="#10201d" font-family="Inter, ui-sans-serif, system-ui, -apple-system, BlinkMacSystemFont, Segoe UI, sans-serif" font-size="64" font-weight="860">Can Codex /goal rebuild</text>
  <text x="78" y="386" fill="#10201d" font-family="Inter, ui-sans-serif, system-ui, -apple-system, BlinkMacSystemFont, Segoe UI, sans-serif" font-size="64" font-weight="860">programs from scratch?</text>
  <text x="80" y="468" fill="#42525e" font-family="Inter, ui-sans-serif, system-ui, -apple-system, BlinkMacSystemFont, Segoe UI, sans-serif" font-size="30" font-weight="520">Behavioral tests, cost, calls, latency, and public evidence.</text>
  <g transform="translate(80 522)" fill="#10201d" font-family="Inter, ui-sans-serif, system-ui, -apple-system, BlinkMacSystemFont, Segoe UI, sans-serif" font-size="23" font-weight="740">
    <rect width="244" height="46" rx="10" fill="#ffffff" stroke="#d9e0e6"/>
    <text x="22" y="30">200 tasks</text>
    <rect x="264" width="328" height="46" rx="10" fill="#ffffff" stroke="#d9e0e6"/>
    <text x="286" y="30">strict no-internet track</text>
    <rect x="612" width="214" height="46" rx="10" fill="#ffffff" stroke="#d9e0e6"/>
    <text x="634" y="30">GitHub Pages</text>
  </g>
</svg>
